# xmcd
# 
# Track frame offsets:
#     150
#     7055
#     28321
#     49513
#     71124
#     92129
#     113352
# 
# Disc length: 1602
# 
# Revision: 0
# Processed by: cddbd v1.5.2PL0 Copyright (c) Steve Scherf et al.
# Submitted via: fre:ac v1.0.17
# 
DISCID=56064007
DTITLE=Various Artist - selector infect WIXOSS music particle 1
DYEAR=2014
DGENRE=
TTITLE0=分島花音 - killy killy JOKER (TVsize)
TTITLE1=Cyua - realize -夢の待つ場所-
TTITLE2=Cyua - realize -夢の待つ場所- (White Hope Mix)
TTITLE3=Cyua - realize -夢の待つ場所- (Red Ambition Mix)
TTITLE4=Cyua - realize -夢の待つ場所- (Green Wanna Mix)
TTITLE5=Cyua - realize -夢の待つ場所- (Instrumenatal)
TTITLE6=Cyua - realize -夢の待つ場所- (TVsize)
EXTD=
EXTT0=
EXTT1=
EXTT2=
EXTT3=
EXTT4=
EXTT5=
EXTT6=
PLAYORDER=
